# xmcd CD database file
# Copyright (C) 1997 Ti Kan
#
# Track frame offsets:
#  182
#  19810
#  44432
#  59415
#  79815
#  94280
#  118540
#  140795
#  156855
#  176557
#
# Disc length: 2574 seconds
#
# Revision: 1
# Processed by: cddbd v1.4b41PL1 Copyright (c) Steve Scherf et al.
# Submitted via: CDWizzard Release:4.31
#
DISCID=890a0c0a
DTITLE=Peter Green/Katmandu - A Case For The Blues
DYEAR=1900
DGENRE=
TTITLE0=Dust My Broom
TTITLE1=One More Night Without You
TTITLE2=Crane's Train Boogie
TTITLE3=We're Going To Boogie
TTITLE4=Zulu Gone West
TTITLE5=Blowing All My Troubles Away
TTITLE6=Strangers Blues
TTITLE7=Sweet Sixteen
TTITLE8=Who's That Knocking
TTITLE9=The Case
EXTD=
EXTT0=
EXTT1=
EXTT2=
EXTT3=
EXTT4=
EXTT5=
EXTT6=
EXTT7=
EXTT8=
EXTT9=
PLAYORDER=
